<svg xmlns="http://www.w3.org/2000/svg" xmlns:xlink="http://www.w3.org/1999/xlink" width="187.5" viewBox="0 0 187.5 54" height="54" version="1.0"><defs><g id="a"><path d="M 13.78125 0 L 7.640625 0 C 5.546875 0 3.988281 -0.414062 2.96875 -1.25 C 1.957031 -2.09375 1.453125 -3.382812 1.453125 -5.125 L 1.453125 -12.953125 C 1.453125 -14.703125 1.957031 -16 2.96875 -16.84375 C 3.988281 -17.6875 5.546875 -18.109375 7.640625 -18.109375 L 13.78125 -18.109375 C 14.101562 -18.109375 14.332031 -18.035156 14.46875 -17.890625 C 14.613281 -17.753906 14.6875 -17.523438 14.6875 -17.203125 L 14.6875 -14.15625 C 14.6875 -13.84375 14.613281 -13.613281 14.46875 -13.46875 C 14.332031 -13.320312 14.101562 -13.25 13.78125 -13.25 L 8.734375 -13.25 C 8.210938 -13.25 7.820312 -13.144531 7.5625 -12.9375 C 7.3125 -12.726562 7.1875 -12.414062 7.1875 -12 L 7.1875 -6.015625 C 7.1875 -5.597656 7.3125 -5.289062 7.5625 -5.09375 C 7.820312 -4.90625 8.210938 -4.8125 8.734375 -4.8125 L 13.78125 -4.8125 C 14.101562 -4.8125 14.332031 -4.738281 14.46875 -4.59375 C 14.613281 -4.445312 14.6875 -4.21875 14.6875 -3.90625 L 14.6875 -0.90625 C 14.6875 -0.582031 14.613281 -0.347656 14.46875 -0.203125 C 14.332031 -0.0664062 14.101562 0 13.78125 0 Z M 13.78125 0"/></g><g id="b"><path d="M 7.421875 -13.578125 L 7.421875 -10.359375 L 9.3125 -10.359375 C 9.75 -10.359375 10.039062 -10.472656 10.1875 -10.703125 C 10.34375 -10.929688 10.421875 -11.210938 10.421875 -11.546875 L 10.421875 -12.40625 C 10.421875 -12.738281 10.34375 -13.015625 10.1875 -13.234375 C 10.039062 -13.460938 9.75 -13.578125 9.3125 -13.578125 Z M 6.515625 0 L 2.640625 0 C 2.316406 0 2.082031 -0.0664062 1.9375 -0.203125 C 1.800781 -0.347656 1.734375 -0.582031 1.734375 -0.90625 L 1.734375 -17.203125 C 1.734375 -17.523438 1.800781 -17.753906 1.9375 -17.890625 C 2.082031 -18.035156 2.316406 -18.109375 2.640625 -18.109375 L 11.015625 -18.109375 C 12.898438 -18.109375 14.195312 -17.71875 14.90625 -16.9375 C 15.613281 -16.15625 15.96875 -15.144531 15.96875 -13.90625 L 15.96875 -12.75 C 15.96875 -12.050781 15.863281 -11.453125 15.65625 -10.953125 C 15.445312 -10.460938 15.082031 -10.109375 14.5625 -9.890625 C 15.46875 -9.785156 16.203125 -9.414062 16.765625 -8.78125 C 17.328125 -8.144531 17.609375 -7.296875 17.609375 -6.234375 L 17.609375 -0.90625 C 17.609375 -0.582031 17.535156 -0.347656 17.390625 -0.203125 C 17.253906 -0.0664062 17.023438 0 16.703125 0 L 12.796875 0 C 12.484375 0 12.253906 -0.0664062 12.109375 -0.203125 C 11.972656 -0.347656 11.90625 -0.582031 11.90625 -0.90625 L 11.90625 -4.75 C 11.90625 -5.125 11.832031 -5.398438 11.6875 -5.578125 C 11.539062 -5.753906 11.289062 -5.84375 10.9375 -5.84375 L 7.421875 -5.84375 L 7.421875 -0.90625 C 7.421875 -0.582031 7.347656 -0.347656 7.203125 -0.203125 C 7.066406 -0.0664062 6.835938 0 6.515625 0 Z M 6.515625 0"/></g><g id="c"><path d="M 10.921875 0 L 6.84375 0 C 6.519531 0 6.285156 -0.0664062 6.140625 -0.203125 C 6.003906 -0.347656 5.9375 -0.582031 5.9375 -0.90625 L 5.9375 -4.125 L 2.09375 -9.28125 C 1.707031 -9.800781 1.445312 -10.253906 1.3125 -10.640625 C 1.1875 -11.023438 1.125 -11.601562 1.125 -12.375 L 1.125 -17.203125 C 1.125 -17.523438 1.195312 -17.753906 1.34375 -17.890625 C 1.488281 -18.035156 1.71875 -18.109375 2.03125 -18.109375 L 5.90625 -18.109375 C 6.226562 -18.109375 6.457031 -18.035156 6.59375 -17.890625 C 6.738281 -17.753906 6.8125 -17.523438 6.8125 -17.203125 L 6.8125 -13.078125 C 6.8125 -12.910156 6.820312 -12.734375 6.84375 -12.546875 C 6.863281 -12.367188 6.929688 -12.195312 7.046875 -12.03125 L 8.203125 -10.21875 C 8.285156 -10.0625 8.375 -9.945312 8.46875 -9.875 C 8.5625 -9.8125 8.675781 -9.78125 8.8125 -9.78125 L 9.0625 -9.78125 C 9.1875 -9.78125 9.296875 -9.8125 9.390625 -9.875 C 9.484375 -9.945312 9.570312 -10.0625 9.65625 -10.21875 L 10.8125 -12.03125 C 10.9375 -12.195312 11.003906 -12.367188 11.015625 -12.546875 C 11.035156 -12.734375 11.046875 -12.910156 11.046875 -13.078125 L 11.046875 -17.203125 C 11.046875 -17.523438 11.113281 -17.753906 11.25 -17.890625 C 11.394531 -18.035156 11.628906 -18.109375 11.953125 -18.109375 L 15.703125 -18.109375 C 16.015625 -18.109375 16.242188 -18.035156 16.390625 -17.890625 C 16.535156 -17.753906 16.609375 -17.523438 16.609375 -17.203125 L 16.609375 -12.375 C 16.609375 -11.601562 16.539062 -11.023438 16.40625 -10.640625 C 16.269531 -10.253906 16.015625 -9.800781 15.640625 -9.28125 L 11.828125 -4.09375 L 11.828125 -0.90625 C 11.828125 -0.582031 11.753906 -0.347656 11.609375 -0.203125 C 11.460938 -0.0664062 11.234375 0 10.921875 0 Z M 10.921875 0"/></g><g id="d"><path d="M 6.546875 0 L 2.640625 0 C 2.316406 0 2.082031 -0.0664062 1.9375 -0.203125 C 1.800781 -0.347656 1.734375 -0.582031 1.734375 -0.90625 L 1.734375 -17.203125 C 1.734375 -17.523438 1.800781 -17.753906 1.9375 -17.890625 C 2.082031 -18.035156 2.316406 -18.109375 2.640625 -18.109375 L 10.34375 -18.109375 C 12.625 -18.109375 14.179688 -17.65625 15.015625 -16.75 C 15.859375 -15.84375 16.28125 -14.660156 16.28125 -13.203125 L 16.28125 -9.984375 C 16.28125 -8.523438 15.859375 -7.34375 15.015625 -6.4375 C 14.179688 -5.53125 12.625 -5.078125 10.34375 -5.078125 L 7.453125 -5.078125 L 7.453125 -0.90625 C 7.453125 -0.582031 7.378906 -0.347656 7.234375 -0.203125 C 7.085938 -0.0664062 6.859375 0 6.546875 0 Z M 7.390625 -13.40625 L 7.390625 -9.609375 L 9.65625 -9.609375 C 10.144531 -9.609375 10.460938 -9.734375 10.609375 -9.984375 C 10.765625 -10.234375 10.84375 -10.519531 10.84375 -10.84375 L 10.84375 -12.171875 C 10.84375 -12.492188 10.765625 -12.78125 10.609375 -13.03125 C 10.460938 -13.28125 10.144531 -13.40625 9.65625 -13.40625 Z M 7.390625 -13.40625"/></g><g id="e"><path d="M 10.28125 0 L 6.21875 0 C 5.894531 0 5.660156 -0.0664062 5.515625 -0.203125 C 5.378906 -0.347656 5.3125 -0.582031 5.3125 -0.90625 L 5.3125 -13.25 L 1.609375 -13.25 C 1.285156 -13.25 1.050781 -13.320312 0.90625 -13.46875 C 0.769531 -13.613281 0.703125 -13.84375 0.703125 -14.15625 L 0.703125 -17.203125 C 0.703125 -17.523438 0.769531 -17.753906 0.90625 -17.890625 C 1.050781 -18.035156 1.285156 -18.109375 1.609375 -18.109375 L 14.890625 -18.109375 C 15.210938 -18.109375 15.441406 -18.035156 15.578125 -17.890625 C 15.722656 -17.753906 15.796875 -17.523438 15.796875 -17.203125 L 15.796875 -14.15625 C 15.796875 -13.84375 15.722656 -13.613281 15.578125 -13.46875 C 15.441406 -13.320312 15.210938 -13.25 14.890625 -13.25 L 11.1875 -13.25 L 11.1875 -0.90625 C 11.1875 -0.582031 11.113281 -0.347656 10.96875 -0.203125 C 10.832031 -0.0664062 10.601562 0 10.28125 0 Z M 10.28125 0"/></g><g id="f"><path d="M 17.078125 -4.75 C 17.078125 -3.976562 16.960938 -3.273438 16.734375 -2.640625 C 16.515625 -2.015625 16.113281 -1.476562 15.53125 -1.03125 C 14.957031 -0.59375 14.160156 -0.25 13.140625 0 C 12.128906 0.25 10.84375 0.375 9.28125 0.375 C 7.71875 0.375 6.425781 0.25 5.40625 0 C 4.382812 -0.25 3.582031 -0.59375 3 -1.03125 C 2.425781 -1.476562 2.023438 -2.015625 1.796875 -2.640625 C 1.566406 -3.273438 1.453125 -3.976562 1.453125 -4.75 L 1.453125 -13.328125 C 1.453125 -14.097656 1.566406 -14.796875 1.796875 -15.421875 C 2.023438 -16.054688 2.425781 -16.597656 3 -17.046875 C 3.582031 -17.503906 4.382812 -17.859375 5.40625 -18.109375 C 6.425781 -18.359375 7.71875 -18.484375 9.28125 -18.484375 C 10.84375 -18.484375 12.128906 -18.359375 13.140625 -18.109375 C 14.160156 -17.859375 14.957031 -17.503906 15.53125 -17.046875 C 16.113281 -16.597656 16.515625 -16.054688 16.734375 -15.421875 C 16.960938 -14.796875 17.078125 -14.097656 17.078125 -13.328125 Z M 7.171875 -5.65625 C 7.171875 -5.320312 7.296875 -5.039062 7.546875 -4.8125 C 7.796875 -4.59375 8.375 -4.484375 9.28125 -4.484375 C 10.1875 -4.484375 10.765625 -4.59375 11.015625 -4.8125 C 11.265625 -5.039062 11.390625 -5.320312 11.390625 -5.65625 L 11.390625 -12.421875 C 11.390625 -12.742188 11.265625 -13.015625 11.015625 -13.234375 C 10.765625 -13.460938 10.1875 -13.578125 9.28125 -13.578125 C 8.375 -13.578125 7.796875 -13.460938 7.546875 -13.234375 C 7.296875 -13.015625 7.171875 -12.742188 7.171875 -12.421875 Z M 7.171875 -5.65625"/></g><g id="g"><path d="M 10.140625 0 L 2.1875 0 C 1.863281 0 1.628906 -0.0664062 1.484375 -0.203125 C 1.347656 -0.347656 1.28125 -0.582031 1.28125 -0.90625 L 1.28125 -3.84375 C 1.28125 -4.164062 1.347656 -4.394531 1.484375 -4.53125 C 1.628906 -4.675781 1.863281 -4.75 2.1875 -4.75 L 8.953125 -4.75 C 9.171875 -4.75 9.332031 -4.820312 9.4375 -4.96875 C 9.550781 -5.113281 9.609375 -5.285156 9.609375 -5.484375 C 9.609375 -5.765625 9.550781 -5.972656 9.4375 -6.109375 C 9.332031 -6.242188 9.171875 -6.320312 8.953125 -6.34375 L 5.1875 -6.875 C 4.007812 -7.039062 3.0625 -7.425781 2.34375 -8.03125 C 1.632812 -8.632812 1.28125 -9.640625 1.28125 -11.046875 L 1.28125 -13.6875 C 1.28125 -15.113281 1.738281 -16.207031 2.65625 -16.96875 C 3.582031 -17.726562 4.859375 -18.109375 6.484375 -18.109375 L 13.53125 -18.109375 C 13.851562 -18.109375 14.082031 -18.035156 14.21875 -17.890625 C 14.363281 -17.753906 14.4375 -17.523438 14.4375 -17.203125 L 14.4375 -14.21875 C 14.4375 -13.894531 14.363281 -13.660156 14.21875 -13.515625 C 14.082031 -13.378906 13.851562 -13.3125 13.53125 -13.3125 L 7.671875 -13.3125 C 7.453125 -13.3125 7.285156 -13.238281 7.171875 -13.09375 C 7.054688 -12.945312 7 -12.765625 7 -12.546875 C 7 -12.328125 7.054688 -12.140625 7.171875 -11.984375 C 7.285156 -11.835938 7.453125 -11.757812 7.671875 -11.75 L 11.421875 -11.25 C 12.597656 -11.082031 13.546875 -10.695312 14.265625 -10.09375 C 14.984375 -9.488281 15.34375 -8.476562 15.34375 -7.0625 L 15.34375 -4.421875 C 15.34375 -3.003906 14.875 -1.910156 13.9375 -1.140625 C 13.007812 -0.378906 11.742188 0 10.140625 0 Z M 10.140625 0"/></g><g id="h"><path d="M 6.546875 0 L 2.640625 0 C 2.316406 0 2.082031 -0.0664062 1.9375 -0.203125 C 1.800781 -0.347656 1.734375 -0.582031 1.734375 -0.90625 L 1.734375 -17.203125 C 1.734375 -17.523438 1.800781 -17.753906 1.9375 -17.890625 C 2.082031 -18.035156 2.316406 -18.109375 2.640625 -18.109375 L 6.546875 -18.109375 C 6.859375 -18.109375 7.085938 -18.035156 7.234375 -17.890625 C 7.378906 -17.753906 7.453125 -17.523438 7.453125 -17.203125 L 7.453125 -11.75 L 11.640625 -11.75 L 11.640625 -17.203125 C 11.640625 -17.523438 11.710938 -17.753906 11.859375 -17.890625 C 12.003906 -18.035156 12.234375 -18.109375 12.546875 -18.109375 L 16.453125 -18.109375 C 16.773438 -18.109375 17.003906 -18.035156 17.140625 -17.890625 C 17.285156 -17.753906 17.359375 -17.523438 17.359375 -17.203125 L 17.359375 -0.90625 C 17.359375 -0.582031 17.285156 -0.347656 17.140625 -0.203125 C 17.003906 -0.0664062 16.773438 0 16.453125 0 L 12.546875 0 C 12.234375 0 12.003906 -0.0664062 11.859375 -0.203125 C 11.710938 -0.347656 11.640625 -0.582031 11.640625 -0.90625 L 11.640625 -6.484375 L 7.453125 -6.484375 L 7.453125 -0.90625 C 7.453125 -0.582031 7.378906 -0.347656 7.234375 -0.203125 C 7.085938 -0.0664062 6.859375 0 6.546875 0 Z M 6.546875 0"/></g><g id="i"><path d="M 8.296875 -12.828125 L 7.125 -9 L 11.0625 -9 L 9.890625 -12.828125 C 9.816406 -12.984375 9.742188 -13.09375 9.671875 -13.15625 C 9.597656 -13.21875 9.507812 -13.25 9.40625 -13.25 L 8.78125 -13.25 C 8.675781 -13.25 8.585938 -13.21875 8.515625 -13.15625 C 8.441406 -13.09375 8.367188 -12.984375 8.296875 -12.828125 Z M 6.875 -0.90625 C 6.875 -0.582031 6.800781 -0.347656 6.65625 -0.203125 C 6.507812 -0.0664062 6.28125 0 5.96875 0 L 2.265625 0 C 1.941406 0 1.707031 -0.0664062 1.5625 -0.203125 C 1.425781 -0.347656 1.359375 -0.582031 1.359375 -0.90625 L 1.359375 -7.546875 C 1.359375 -8.046875 1.4375 -8.625 1.59375 -9.28125 C 1.757812 -9.9375 2.007812 -10.703125 2.34375 -11.578125 L 4.53125 -17.28125 C 4.625 -17.5625 4.773438 -17.769531 4.984375 -17.90625 C 5.203125 -18.039062 5.476562 -18.109375 5.8125 -18.109375 L 12.578125 -18.109375 C 12.898438 -18.109375 13.164062 -18.039062 13.375 -17.90625 C 13.582031 -17.769531 13.738281 -17.5625 13.84375 -17.28125 L 16.03125 -11.578125 C 16.363281 -10.703125 16.609375 -9.9375 16.765625 -9.28125 C 16.921875 -8.625 17 -8.046875 17 -7.546875 L 17 -0.90625 C 17 -0.582031 16.925781 -0.347656 16.78125 -0.203125 C 16.644531 -0.0664062 16.414062 0 16.09375 0 L 12.296875 0 C 11.960938 0 11.71875 -0.0664062 11.5625 -0.203125 C 11.40625 -0.347656 11.328125 -0.582031 11.328125 -0.90625 L 11.328125 -4.421875 L 6.875 -4.421875 Z M 6.875 -0.90625"/></g><g id="j"><path d="M 14.3125 0 L 2.640625 0 C 2.316406 0 2.082031 -0.0664062 1.9375 -0.203125 C 1.800781 -0.347656 1.734375 -0.582031 1.734375 -0.90625 L 1.734375 -17.203125 C 1.734375 -17.523438 1.800781 -17.753906 1.9375 -17.890625 C 2.082031 -18.035156 2.316406 -18.109375 2.640625 -18.109375 L 14.3125 -18.109375 C 14.632812 -18.109375 14.863281 -18.035156 15 -17.890625 C 15.144531 -17.753906 15.21875 -17.523438 15.21875 -17.203125 L 15.21875 -14.265625 C 15.21875 -13.941406 15.144531 -13.707031 15 -13.5625 C 14.863281 -13.425781 14.632812 -13.359375 14.3125 -13.359375 L 7.375 -13.359375 L 7.375 -11.421875 L 12.28125 -11.421875 C 12.59375 -11.421875 12.820312 -11.347656 12.96875 -11.203125 C 13.113281 -11.066406 13.1875 -10.835938 13.1875 -10.515625 L 13.1875 -7.828125 C 13.1875 -7.503906 13.113281 -7.269531 12.96875 -7.125 C 12.820312 -6.988281 12.59375 -6.921875 12.28125 -6.921875 L 7.375 -6.921875 L 7.375 -4.75 L 14.3125 -4.75 C 14.632812 -4.75 14.863281 -4.675781 15 -4.53125 C 15.144531 -4.394531 15.21875 -4.164062 15.21875 -3.84375 L 15.21875 -0.90625 C 15.21875 -0.582031 15.144531 -0.347656 15 -0.203125 C 14.863281 -0.0664062 14.632812 0 14.3125 0 Z M 14.3125 0"/></g></defs><g fill="#F0F"><use x="40.888" y="28.838" xmlns:xlink="http://www.w3.org/1999/xlink" xlink:href="#a" xlink:type="simple" xlink:actuate="onLoad" xlink:show="embed"/></g><g fill="#F0F"><use x="56.684" y="28.838" xmlns:xlink="http://www.w3.org/1999/xlink" xlink:href="#b" xlink:type="simple" xlink:actuate="onLoad" xlink:show="embed"/></g><g fill="#F0F"><use x="75.373" y="28.838" xmlns:xlink="http://www.w3.org/1999/xlink" xlink:href="#c" xlink:type="simple" xlink:actuate="onLoad" xlink:show="embed"/></g><g fill="#F0F"><use x="93.106" y="28.838" xmlns:xlink="http://www.w3.org/1999/xlink" xlink:href="#d" xlink:type="simple" xlink:actuate="onLoad" xlink:show="embed"/></g><g fill="#F0F"><use x="110.261" y="28.838" xmlns:xlink="http://www.w3.org/1999/xlink" xlink:href="#e" xlink:type="simple" xlink:actuate="onLoad" xlink:show="embed"/></g><g fill="#F0F"><use x="126.761" y="28.838" xmlns:xlink="http://www.w3.org/1999/xlink" xlink:href="#f" xlink:type="simple" xlink:actuate="onLoad" xlink:show="embed"/></g><g fill="#0FF"><use x="42.199" y="27.615" xmlns:xlink="http://www.w3.org/1999/xlink" xlink:href="#a" xlink:type="simple" xlink:actuate="onLoad" xlink:show="embed"/></g><g fill="#0FF"><use x="57.995" y="27.615" xmlns:xlink="http://www.w3.org/1999/xlink" xlink:href="#b" xlink:type="simple" xlink:actuate="onLoad" xlink:show="embed"/></g><g fill="#0FF"><use x="76.684" y="27.615" xmlns:xlink="http://www.w3.org/1999/xlink" xlink:href="#c" xlink:type="simple" xlink:actuate="onLoad" xlink:show="embed"/></g><g fill="#0FF"><use x="94.417" y="27.615" xmlns:xlink="http://www.w3.org/1999/xlink" xlink:href="#d" xlink:type="simple" xlink:actuate="onLoad" xlink:show="embed"/></g><g fill="#0FF"><use x="111.572" y="27.615" xmlns:xlink="http://www.w3.org/1999/xlink" xlink:href="#e" xlink:type="simple" xlink:actuate="onLoad" xlink:show="embed"/></g><g fill="#0FF"><use x="128.072" y="27.615" xmlns:xlink="http://www.w3.org/1999/xlink" xlink:href="#f" xlink:type="simple" xlink:actuate="onLoad" xlink:show="embed"/></g><g fill="#03989E"><use x="41.543" y="28.226" xmlns:xlink="http://www.w3.org/1999/xlink" xlink:href="#a" xlink:type="simple" xlink:actuate="onLoad" xlink:show="embed"/></g><g fill="#03989E"><use x="57.34" y="28.226" xmlns:xlink="http://www.w3.org/1999/xlink" xlink:href="#b" xlink:type="simple" xlink:actuate="onLoad" xlink:show="embed"/></g><g fill="#03989E"><use x="76.029" y="28.226" xmlns:xlink="http://www.w3.org/1999/xlink" xlink:href="#c" xlink:type="simple" xlink:actuate="onLoad" xlink:show="embed"/></g><g fill="#03989E"><use x="93.762" y="28.226" xmlns:xlink="http://www.w3.org/1999/xlink" xlink:href="#d" xlink:type="simple" xlink:actuate="onLoad" xlink:show="embed"/></g><g fill="#03989E"><use x="110.916" y="28.226" xmlns:xlink="http://www.w3.org/1999/xlink" xlink:href="#e" xlink:type="simple" xlink:actuate="onLoad" xlink:show="embed"/></g><g fill="#03989E"><use x="127.417" y="28.226" xmlns:xlink="http://www.w3.org/1999/xlink" xlink:href="#f" xlink:type="simple" xlink:actuate="onLoad" xlink:show="embed"/></g><g fill="#F0F"><use x="48.624" y="47.657" xmlns:xlink="http://www.w3.org/1999/xlink" xlink:href="#g" xlink:type="simple" xlink:actuate="onLoad" xlink:show="embed"/></g><g fill="#F0F"><use x="64.973" y="47.657" xmlns:xlink="http://www.w3.org/1999/xlink" xlink:href="#h" xlink:type="simple" xlink:actuate="onLoad" xlink:show="embed"/></g><g fill="#F0F"><use x="84.065" y="47.657" xmlns:xlink="http://www.w3.org/1999/xlink" xlink:href="#i" xlink:type="simple" xlink:actuate="onLoad" xlink:show="embed"/></g><g fill="#F0F"><use x="102.427" y="47.657" xmlns:xlink="http://www.w3.org/1999/xlink" xlink:href="#b" xlink:type="simple" xlink:actuate="onLoad" xlink:show="embed"/></g><g fill="#F0F"><use x="121.116" y="47.657" xmlns:xlink="http://www.w3.org/1999/xlink" xlink:href="#j" xlink:type="simple" xlink:actuate="onLoad" xlink:show="embed"/></g><g fill="#0FF"><use x="49.935" y="46.435" xmlns:xlink="http://www.w3.org/1999/xlink" xlink:href="#g" xlink:type="simple" xlink:actuate="onLoad" xlink:show="embed"/></g><g fill="#0FF"><use x="66.285" y="46.435" xmlns:xlink="http://www.w3.org/1999/xlink" xlink:href="#h" xlink:type="simple" xlink:actuate="onLoad" xlink:show="embed"/></g><g fill="#0FF"><use x="85.376" y="46.435" xmlns:xlink="http://www.w3.org/1999/xlink" xlink:href="#i" xlink:type="simple" xlink:actuate="onLoad" xlink:show="embed"/></g><g fill="#0FF"><use x="103.738" y="46.435" xmlns:xlink="http://www.w3.org/1999/xlink" xlink:href="#b" xlink:type="simple" xlink:actuate="onLoad" xlink:show="embed"/></g><g fill="#0FF"><use x="122.427" y="46.435" xmlns:xlink="http://www.w3.org/1999/xlink" xlink:href="#j" xlink:type="simple" xlink:actuate="onLoad" xlink:show="embed"/></g><g fill="#03989E"><use x="49.279" y="47.046" xmlns:xlink="http://www.w3.org/1999/xlink" xlink:href="#g" xlink:type="simple" xlink:actuate="onLoad" xlink:show="embed"/></g><g fill="#03989E"><use x="65.629" y="47.046" xmlns:xlink="http://www.w3.org/1999/xlink" xlink:href="#h" xlink:type="simple" xlink:actuate="onLoad" xlink:show="embed"/></g><g fill="#03989E"><use x="84.72" y="47.046" xmlns:xlink="http://www.w3.org/1999/xlink" xlink:href="#i" xlink:type="simple" xlink:actuate="onLoad" xlink:show="embed"/></g><g fill="#03989E"><use x="103.082" y="47.046" xmlns:xlink="http://www.w3.org/1999/xlink" xlink:href="#b" xlink:type="simple" xlink:actuate="onLoad" xlink:show="embed"/></g><g fill="#03989E"><use x="121.771" y="47.046" xmlns:xlink="http://www.w3.org/1999/xlink" xlink:href="#j" xlink:type="simple" xlink:actuate="onLoad" xlink:show="embed"/></g></svg>